<svg width="36" height="36" viewBox="0 0 36 36" fill="none" xmlns="http://www.w3.org/2000/svg">
<path d="M25.5 25.5C24.7044 25.5 23.9413 25.8161 23.3787 26.3787C22.8161 26.9413 22.5 27.7044 22.5 28.5C22.5 29.2956 22.8161 30.0587 23.3787 30.6213C23.9413 31.1839 24.7044 31.5 25.5 31.5C26.2956 31.5 27.0587 31.1839 27.6213 30.6213C28.1839 30.0587 28.5 29.2956 28.5 28.5C28.5 27.7044 28.1839 26.9413 27.6213 26.3787C27.0587 25.8161 26.2956 25.5 25.5 25.5ZM25.5 25.5H13.941C13.2495 25.5 12.903 25.5 12.618 25.377C12.3668 25.2688 12.15 25.094 11.991 24.8715C11.811 24.621 11.7405 24.2865 11.5995 23.6265L7.905 6.3975C7.761 5.721 7.6875 5.382 7.5075 5.13C7.34828 4.90673 7.13091 4.73137 6.879 4.623C6.5955 4.5 6.2505 4.5 5.5605 4.5H4.5M9 9H28.3095C29.3925 9 29.9325 9 30.297 9.225C30.6154 9.42281 30.8481 9.73265 30.9495 10.0935C31.065 10.5045 30.9165 11.025 30.6165 12.0645L28.539 19.2645C28.359 19.887 28.269 20.1975 28.089 20.4285C27.9279 20.6326 27.7165 20.7913 27.4755 20.889C27.2055 21 26.8815 21 26.238 21H11.595M12 31.5C11.2044 31.5 10.4413 31.1839 9.87868 30.6213C9.31607 30.0587 9 29.2956 9 28.5C9 27.7044 9.31607 26.9413 9.87868 26.3787C10.4413 25.8161 11.2044 25.5 12 25.5C12.7956 25.5 13.5587 25.8161 14.1213 26.3787C14.6839 26.9413 15 27.7044 15 28.5C15 29.2956 14.6839 30.0587 14.1213 30.6213C13.5587 31.1839 12.7956 31.5 12 31.5Z" stroke="black" stroke-width="3" stroke-linecap="round" stroke-linejoin="round"/>
</svg>
