<svg width="24" height="24" viewBox="0 0 24 24" fill="none" xmlns="http://www.w3.org/2000/svg">
<path d="M4.57497 4.57497C4.85626 4.29373 5.23775 4.13574 5.63552 4.13574C6.03328 4.13574 6.41477 4.29373 6.69606 4.57497L12 9.87887L17.3039 4.57497C17.5865 4.30045 17.9659 4.14818 18.3599 4.15106C18.7539 4.15394 19.131 4.31174 19.4096 4.59036C19.6882 4.86898 19.846 5.24604 19.8489 5.64006C19.8518 6.03407 19.6995 6.4134 19.425 6.69606L14.1211 12L19.425 17.3039C19.6995 17.5865 19.8518 17.9659 19.8489 18.3599C19.846 18.7539 19.6882 19.131 19.4096 19.4096C19.131 19.6882 18.7539 19.846 18.3599 19.8489C17.9659 19.8518 17.5865 19.6995 17.3039 19.425L12 14.1211L6.69606 19.425C6.4134 19.6995 6.03407 19.8518 5.64006 19.8489C5.24604 19.846 4.86898 19.6882 4.59036 19.4096C4.31174 19.131 4.15394 18.7539 4.15106 18.3599C4.14818 17.9659 4.30045 17.5865 4.57497 17.3039L9.87887 12L4.57497 6.69606C4.29373 6.41477 4.13574 6.03328 4.13574 5.63552C4.13574 5.23775 4.29373 4.85626 4.57497 4.57497Z" fill="black"/>
</svg>
