<svg width="36" height="36" viewBox="0 0 36 36" fill="none" xmlns="http://www.w3.org/2000/svg">
<path d="M32.3634 8.27859C32.2578 8.15222 32.1258 8.05058 31.9766 7.98084C31.8274 7.9111 31.6647 7.87497 31.5 7.875H8.81438L7.95937 3.17391C7.91228 2.91469 7.7757 2.68022 7.57346 2.51138C7.37121 2.34254 7.11612 2.25004 6.85266 2.25H3.375C3.07663 2.25 2.79048 2.36853 2.5795 2.5795C2.36853 2.79048 2.25 3.07663 2.25 3.375C2.25 3.67337 2.36853 3.95952 2.5795 4.1705C2.79048 4.38147 3.07663 4.5 3.375 4.5H5.90625L9.50062 24.2283C9.6065 24.8134 9.86507 25.3601 10.2502 25.8131C9.71866 26.3096 9.33504 26.9435 9.14183 27.6446C8.94862 28.3458 8.95338 29.0867 9.15557 29.7853C9.35776 30.4839 9.74949 31.1129 10.2873 31.6025C10.8251 32.092 11.4881 32.4231 12.2025 32.5589C12.917 32.6947 13.6552 32.63 14.3351 32.3719C15.015 32.1138 15.6102 31.6725 16.0547 31.0968C16.4991 30.5211 16.7754 29.8336 16.8529 29.1104C16.9304 28.3873 16.8062 27.6568 16.4939 27H22.8811C22.6294 27.5269 22.4992 28.1036 22.5 28.6875C22.5 29.4663 22.7309 30.2275 23.1636 30.8751C23.5962 31.5226 24.2112 32.0273 24.9307 32.3253C25.6502 32.6233 26.4419 32.7013 27.2057 32.5493C27.9695 32.3974 28.6711 32.0224 29.2217 31.4717C29.7724 30.9211 30.1474 30.2195 30.2993 29.4557C30.4513 28.6919 30.3733 27.9002 30.0753 27.1807C29.7773 26.4612 29.2726 25.8462 28.6251 25.4136C27.9775 24.9809 27.2163 24.75 26.4375 24.75H12.8208C12.5573 24.75 12.3022 24.6575 12.1 24.4886C11.8977 24.3198 11.7612 24.0853 11.7141 23.8261L11.2683 21.375H27.5808C28.3712 21.3749 29.1364 21.0974 29.7432 20.5909C30.3499 20.0843 30.7597 19.3809 30.9009 18.6033L32.6109 9.20109C32.6399 9.03859 32.6327 8.8717 32.5899 8.71227C32.5472 8.55285 32.4698 8.40479 32.3634 8.27859ZM14.625 28.6875C14.625 29.0213 14.526 29.3475 14.3406 29.625C14.1552 29.9025 13.8916 30.1188 13.5833 30.2465C13.2749 30.3743 12.9356 30.4077 12.6083 30.3426C12.2809 30.2775 11.9803 30.1167 11.7443 29.8807C11.5083 29.6447 11.3475 29.3441 11.2824 29.0167C11.2173 28.6894 11.2507 28.3501 11.3785 28.0417C11.5062 27.7334 11.7225 27.4698 12 27.2844C12.2775 27.099 12.6037 27 12.9375 27C13.3851 27 13.8143 27.1778 14.1307 27.4943C14.4472 27.8107 14.625 28.2399 14.625 28.6875ZM28.125 28.6875C28.125 29.0213 28.026 29.3475 27.8406 29.625C27.6552 29.9025 27.3916 30.1188 27.0833 30.2465C26.7749 30.3743 26.4356 30.4077 26.1083 30.3426C25.7809 30.2775 25.4803 30.1167 25.2443 29.8807C25.0083 29.6447 24.8475 29.3441 24.7824 29.0167C24.7173 28.6894 24.7507 28.3501 24.8785 28.0417C25.0062 27.7334 25.2225 27.4698 25.5 27.2844C25.7775 27.099 26.1037 27 26.4375 27C26.8851 27 27.3143 27.1778 27.6307 27.4943C27.9472 27.8107 28.125 28.2399 28.125 28.6875ZM28.6875 18.2011C28.6403 18.461 28.5031 18.696 28.3 18.865C28.0968 19.0339 27.8407 19.126 27.5766 19.125H10.8591L9.22359 10.125H30.1514L28.6875 18.2011Z" fill="black"/>
</svg>
