<svg width="36" height="36" viewBox="0 0 36 36" fill="none" xmlns="http://www.w3.org/2000/svg">
<path d="M27 6.72011C24.6131 4.33316 21.3757 2.99219 18 2.99219C14.6244 2.99219 11.387 4.33316 9.00002 6.72011C6.61307 9.10706 5.27209 12.3445 5.27209 15.7201C5.27209 19.0958 6.61307 22.3332 9.00002 24.7201L16.905 32.6401C17.0445 32.7807 17.2104 32.8923 17.3932 32.9684C17.5759 33.0446 17.772 33.0838 17.97 33.0838C18.168 33.0838 18.3641 33.0446 18.5469 32.9684C18.7297 32.8923 18.8956 32.7807 19.035 32.6401L27 24.6451C29.377 22.2681 30.7124 19.0442 30.7124 15.6826C30.7124 12.321 29.377 9.09713 27 6.72011ZM24.855 22.5001L18 29.3851L11.145 22.5001C9.79073 21.1446 8.86873 19.418 8.49556 17.5385C8.12239 15.6591 8.3148 13.7112 9.04847 11.9411C9.78215 10.171 11.0241 8.65818 12.6175 7.59383C14.2108 6.52947 16.0839 5.96138 18 5.96138C19.9161 5.96138 21.7892 6.52947 23.3826 7.59383C24.9759 8.65818 26.2179 10.171 26.9516 11.9411C27.6852 13.7112 27.8776 15.6591 27.5045 17.5385C27.1313 19.418 26.2093 21.1446 24.855 22.5001ZM13.5 11.1151C12.2891 12.3298 11.6091 13.975 11.6091 15.6901C11.6091 17.4053 12.2891 19.0505 13.5 20.2651C14.3997 21.1663 15.5454 21.7817 16.7935 22.0342C18.0416 22.2867 19.3364 22.165 20.5156 21.6843C21.6948 21.2037 22.7058 20.3855 23.4217 19.3325C24.1377 18.2794 24.5267 17.0384 24.54 15.7651C24.5468 14.9149 24.383 14.072 24.0584 13.2862C23.7337 12.5004 23.2549 11.7876 22.65 11.1901C22.0555 10.582 21.3466 10.0974 20.5642 9.76431C19.7817 9.4312 18.941 9.25612 18.0906 9.24915C17.2402 9.24218 16.3968 9.40346 15.609 9.72369C14.8211 10.0439 14.1044 10.5168 13.5 11.1151ZM20.535 18.1351C19.9666 18.7122 19.2153 19.074 18.4097 19.1585C17.6041 19.243 16.7941 19.0451 16.1183 18.5985C15.4424 18.1519 14.9427 17.4845 14.7045 16.7102C14.4663 15.936 14.5045 15.1031 14.8125 14.3538C15.1204 13.6046 15.6791 12.9856 16.3929 12.6027C17.1067 12.2198 17.9314 12.0967 18.7259 12.2545C19.5204 12.4123 20.2355 12.8412 20.7488 13.4679C21.2621 14.0946 21.5418 14.8801 21.54 15.6901C21.5182 16.616 21.1298 17.4954 20.46 18.1351H20.535Z" fill="black"/>
</svg>
